<?xml version="1.0" encoding="UTF-8"?>
<svg version="1.1" xmlns="http://www.w3.org/2000/svg" width="96" height="96">
<path d="M0 0 C31.68 0 63.36 0 96 0 C96 31.68 96 63.36 96 96 C64.32 96 32.64 96 0 96 C0 64.32 0 32.64 0 0 Z " fill="#1F1F1E" transform="translate(0,0)"/>
<path d="M0 0 C0.495 1.98 0.495 1.98 1 4 C1.66 4 2.32 4 3 4 C3.66 5.98 4.32 7.96 5 10 C-7.54 10 -20.08 10 -33 10 C-31.875 1 -31.875 1 -31 -2 C-20.61600402 -4.6797409 -10.26176304 -1.97930676 0 0 Z " fill="#771916" transform="translate(58,86)"/>
<path d="M0 0 C1.97993541 0.30759178 3.95893599 0.6212068 5.9375 0.9375 C7.03964844 1.11152344 8.14179687 1.28554688 9.27734375 1.46484375 C12 2 12 2 13 3 C13 2.01 13 1.02 13 0 C17.29 0.66 21.58 1.32 26 2 C26 2.66 26 3.32 26 4 C24.02 4.99 24.02 4.99 22 6 C22.99 6 23.98 6 25 6 C25 7.65 25 9.3 25 11 C24.4225 10.83757812 23.845 10.67515625 23.25 10.5078125 C15.78564345 8.82314869 7.50471302 10.30991145 0 11 C0 7.37 0 3.74 0 0 Z " fill="#783230" transform="translate(34,59)"/>
<path d="M0 0 C7.425 0.99 7.425 0.99 15 2 C15.33 3.32 15.66 4.64 16 6 C16.66 6 17.32 6 18 6 C18.66 7.98 19.32 9.96 20 12 C13.4 12 6.8 12 0 12 C0 8.04 0 4.08 0 0 Z " fill="#761816" transform="translate(43,84)"/>
<path d="M0 0 C0 1.32 0 2.64 0 4 C-0.33 4.33 -0.66 4.66 -1 5 C-0.01 5 0.98 5 2 5 C1.67 6.98 1.34 8.96 1 11 C-1.97 11 -4.94 11 -8 11 C-9 8 -9 8 -9 7 C-9.33 7 -9.66 7 -10 7 C-10 5.02 -10 3.04 -10 1 C-3.71428571 -1.42857143 -3.71428571 -1.42857143 0 0 Z " fill="#7F5B4A" transform="translate(49,25)"/>
<path d="M0 0 C7.26 0 14.52 0 22 0 C22 1.65 22 3.3 22 5 C21.4225 4.83757812 20.845 4.67515625 20.25 4.5078125 C12.77553609 2.82086752 4.52867141 4.28662335 -3 5 C-3 4.34 -3 3.68 -3 3 C-2.34 3 -1.68 3 -1 3 C-0.67 2.01 -0.34 1.02 0 0 Z " fill="#68504D" transform="translate(37,65)"/>
<path d="M0 0 C0.66 0 1.32 0 2 0 C4 2 6 4 8 6 C8.99 4.02 9.98 2.04 11 0 C11.33 1.32 11.66 2.64 12 4 C12.66 4 13.32 4 14 4 C14.33 3.01 14.66 2.02 15 1 C15.33 1.66 15.66 2.32 16 3 C15.07161713 4.31896465 14.13194268 5.62998689 13.1875 6.9375 C12.40439453 8.03384766 12.40439453 8.03384766 11.60546875 9.15234375 C10 11 10 11 7 12 C5.84501103 10.92643323 4.70132133 9.84070212 3.5625 8.75 C2.92441406 8.14671875 2.28632812 7.5434375 1.62890625 6.921875 C-0.09170805 4.8917977 -0.69157825 3.6243887 -1 1 C-0.67 0.67 -0.34 0.34 0 0 Z " fill="#64493D" transform="translate(40,42)"/>
<path d="M0 0 C2 0 2 0 3.625 1.375 C5 3 5 3 5 5 C4.319375 5.268125 3.63875 5.53625 2.9375 5.8125 C0.83502467 6.66243684 -1.24666255 7.56452644 -3.3125 8.5 C-7.20846887 10.0848009 -10.9070243 11.06651431 -15 12 C-14.375 10.125 -14.375 10.125 -13 8 C-11 7.33333333 -9 6.66666667 -7 6 C-5.79117904 3.99983534 -5.79117904 3.99983534 -5 2 C-4.01 1.67 -3.02 1.34 -2 1 C-2 1.66 -2 2.32 -2 3 C-1.34 3 -0.68 3 0 3 C0 2.01 0 1.02 0 0 Z " fill="#120E0D" transform="translate(52,70)"/>
<path d="M0 0 C1.1240625 0.14308594 2.248125 0.28617187 3.40625 0.43359375 C8.09948308 1.02024788 12.79864178 1.54565687 17.5 2.0625 C18.32242188 2.15337891 19.14484375 2.24425781 19.9921875 2.33789062 C21.99473555 2.55910233 23.99735981 2.779624 26 3 C25.01 3.495 25.01 3.495 24 4 C24.33 7.3 24.66 10.6 25 14 C24.01 13.67 23.02 13.34 22 13 C21.67 11.35 21.34 9.7 21 8 C20.34 8 19.68 8 19 8 C18.67 7.01 18.34 6.02 18 5 C16.78441406 4.80664062 15.56882812 4.61328125 14.31640625 4.4140625 C12.73169374 4.15150658 11.14706239 3.88846041 9.5625 3.625 C8.76005859 3.49867187 7.95761719 3.37234375 7.13085938 3.2421875 C5.07479277 2.89517204 3.03509869 2.45409572 1 2 C0.67 1.34 0.34 0.68 0 0 Z " fill="#3A0E0D" transform="translate(40,82)"/>
<path d="M0 0 C0.99 0.66 1.98 1.32 3 2 C3.36328125 3.875 3.36328125 3.875 3.3125 6 C3.30863281 6.70125 3.30476563 7.4025 3.30078125 8.125 C3 10 3 10 1 12 C1 12.99 1 13.98 1 15 C-0.32 15.33 -1.64 15.66 -3 16 C-3.66 15.01 -4.32 14.02 -5 13 C-5.99 12.67 -6.98 12.34 -8 12 C-8 11.34 -8 10.68 -8 10 C-1.25 8.875 -1.25 8.875 1 10 C1.33 8.02 1.66 6.04 2 4 C0.02 4.33 -1.96 4.66 -4 5 C-3.67 4.34 -3.34 3.68 -3 3 C-2.01 3 -1.02 3 0 3 C0 2.01 0 1.02 0 0 Z " fill="#483128" transform="translate(49,26)"/>
<path d="M0 0 C0.66 0 1.32 0 2 0 C2.598125 0.9075 3.19625 1.815 3.8125 2.75 C5.94224941 5.91419912 7.93373561 7.78547572 11 10 C13.41066845 7.65448475 15.70194579 5.40844466 17.6875 2.6875 C18.3371875 1.8521875 18.3371875 1.8521875 19 1 C19.66 1 20.32 1 21 1 C19.80088591 3.72525929 18.29215417 6.16787124 16.625 8.625 C16.22539063 9.21539062 15.82578125 9.80578125 15.4140625 10.4140625 C13.78627162 12.23970641 12.23107641 13.04111184 10 14 C8.51207039 12.42489875 7.0349394 10.83959136 5.5625 9.25 C4.73878906 8.36828125 3.91507813 7.4865625 3.06640625 6.578125 C1.16931982 4.21124968 0.37897068 2.9490809 0 0 Z " fill="#662525" transform="translate(37,43)"/>
<path d="M0 0 C0 3.96 0 7.92 0 12 C-0.33 12 -0.66 12 -1 12 C-1.33 10.02 -1.66 8.04 -2 6 C-2.99 7.485 -2.99 7.485 -4 9 C-6.625 10.1875 -6.625 10.1875 -9 11 C-8.44744856 7.68469134 -7.9252298 4.7915832 -6 2 C-1.9 0 -1.9 0 0 0 Z " fill="#191918" transform="translate(74,58)"/>
<path d="M0 0 C2.97 0.33 5.94 0.66 9 1 C9 1.99 9 2.98 9 4 C3.06 4.495 3.06 4.495 -3 5 C-3 4.34 -3 3.68 -3 3 C-2.34 3 -1.68 3 -1 3 C-0.67 2.01 -0.34 1.02 0 0 Z " fill="#6A5E5D" transform="translate(37,65)"/>
<path d="M0 0 C3.63 0.33 7.26 0.66 11 1 C9.25 3 9.25 3 7 5 C5.68 5 4.36 5 3 5 C2.67 5.66 2.34 6.32 2 7 C1.34 7 0.68 7 0 7 C0 4.69 0 2.38 0 0 Z " fill="#741D1B" transform="translate(34,61)"/>
<path d="M0 0 C0.99 0.33 1.98 0.66 3 1 C2.01 4.63 1.02 8.26 0 12 C-1.98 12 -3.96 12 -6 12 C-6 11.34 -6 10.68 -6 10 C-5.01 9.67 -4.02 9.34 -3 9 C-1.97718482 6.90280128 -1.97718482 6.90280128 -1.3125 4.4375 C-1.06113281 3.61121094 -0.80976563 2.78492187 -0.55078125 1.93359375 C-0.36902344 1.29550781 -0.18726563 0.65742187 0 0 Z " fill="#831C19" transform="translate(31,84)"/>
<path d="M0 0 C1.65 0.33 3.3 0.66 5 1 C5 2.65 5 4.3 5 6 C3.35 6.33 1.7 6.66 0 7 C-1.125 2.25 -1.125 2.25 0 0 Z " fill="#754949" transform="translate(22,61)"/>
<path d="M0 0 C0.66 0 1.32 0 2 0 C3.04892238 1.63631892 4.04906703 3.30485863 5 5 C6.11101184 6.33648017 6.11101184 6.33648017 8.9375 6.125 C11.91545728 6.21325664 11.91545728 6.21325664 14 5 C12.60840337 8.47899158 11.36748512 9.48052501 8 11 C6.84501103 9.92643323 5.70132133 8.84070212 4.5625 7.75 C3.92441406 7.14671875 3.28632812 6.5434375 2.62890625 5.921875 C0.91483694 3.89951984 0.40641122 2.58729395 0 0 Z " fill="#8F8888" transform="translate(39,43)"/>
<path d="M0 0 C1.32 0 2.64 0 4 0 C4 2.64 4 5.28 4 8 C2.35 8.66 0.7 9.32 -1 10 C-1.66 8.35 -2.32 6.7 -3 5 C-1.02 5.66 0.96 6.32 3 7 C3 5.35 3 3.7 3 2 C2.01 2.33 1.02 2.66 0 3 C0 2.01 0 1.02 0 0 Z " fill="#5C1D19" transform="translate(56,63)"/>
<path d="M0 0 C0.99 0 1.98 0 3 0 C3.28571429 8.57142857 3.28571429 8.57142857 1 12 C0.67 12 0.34 12 0 12 C0 8.04 0 4.08 0 0 Z " fill="#631211" transform="translate(43,84)"/>
<path d="M0 0 C2.475 0.495 2.475 0.495 5 1 C4.34 4.3 3.68 7.6 3 11 C2.34 11 1.68 11 1 11 C0.67 7.37 0.34 3.74 0 0 Z " fill="#5E1210" transform="translate(49,85)"/>
<path d="M0 0 C2.97 0.33 5.94 0.66 9 1 C8.39816251 3.02045442 7.72693904 5.02111039 7 7 C6.01 7.495 6.01 7.495 5 8 C4.54625 7.360625 4.0925 6.72125 3.625 6.0625 C2.16078274 3.90297594 2.16078274 3.90297594 0 3 C0 2.01 0 1.02 0 0 Z " fill="#483025" transform="translate(42,41)"/>
<path d="M0 0 C0.99 0 1.98 0 3 0 C3.625 3.375 3.625 3.375 4 7 C3.34 7.66 2.68 8.32 2 9 C0.4375 6.1875 0.4375 6.1875 -1 3 C-0.67 2.01 -0.34 1.02 0 0 Z " fill="#111111" transform="translate(50,21)"/>
<path d="M0 0 C-0.33 1.98 -0.66 3.96 -1 6 C-2.9375 5.1875 -2.9375 5.1875 -5 4 C-5.33 3.01 -5.66 2.02 -6 1 C-3 0 -3 0 0 0 Z " fill="#6B4A3C" transform="translate(51,30)"/>
<path d="M0 0 C0.33 0.99 0.66 1.98 1 3 C1.66 3 2.32 3 3 3 C3.33 4.32 3.66 5.64 4 7 C2.68 7.33 1.36 7.66 0 8 C0 5.36 0 2.72 0 0 Z " fill="#641512" transform="translate(58,87)"/>
<path d="M0 0 C4.29 0.66 8.58 1.32 13 2 C13 2.33 13 2.66 13 3 C8.71 3 4.42 3 0 3 C0 2.01 0 1.02 0 0 Z " fill="#706B6B" transform="translate(47,59)"/>
<path d="M0 0 C0.99 0.33 1.98 0.66 3 1 C3 1.66 3 2.32 3 3 C3.66 3.33 4.32 3.66 5 4 C3.02 4 1.04 4 -1 4 C-1.33 3.01 -1.66 2.02 -2 1 C-1.34 0.67 -0.68 0.34 0 0 Z " fill="#6D4B3D" transform="translate(42,32)"/>
</svg>
